<svg id="Capa_1" enable-background="new 0 0 511.97 511.97" height="512" viewBox="0 0 511.97 511.97" width="512" xmlns="http://www.w3.org/2000/svg"><g id="XMLID_1825_"><g id="XMLID_1826_"><g id="XMLID_2061_"><path id="XMLID_7_" d="m317.495 193.633 21.035-13.078h-165.091l21.036 13.078c12.181 23.266 19.073 49.738 19.073 77.822 0 44.498-17.302 84.95-45.535 115.015h175.943c-28.233-30.065-45.535-70.517-45.535-115.015.001-28.083 6.893-54.556 19.074-77.822z" fill="#e7e9ef"/></g><g id="XMLID_1780_"><path id="XMLID_623_" d="m109.985 388.471h292v40h-292z" fill="#c68a65"/></g><g id="XMLID_1779_"><path id="XMLID_622_" d="m256.112 431.402v31.481c0 17.225-10.499 32.711-26.5 39.088-16.001-6.377-26.5-21.863-26.5-39.088v-31.481z" fill="#a7bdcd"/></g><g id="XMLID_1778_"><path id="XMLID_621_" d="m309.112 431.402v31.481c0 17.225-10.499 32.711-26.5 39.088-16.001-6.377-26.5-21.863-26.5-39.088v-31.481z" fill="#a7bdcd"/></g><g id="XMLID_1690_"><path id="XMLID_8_" d="m316.277 39.179c-16.634-12.977-37.56-20.708-60.292-20.708-22.733 0-43.66 7.732-60.295 20.71-34.317 9.005-59.705 40.29-59.705 77.393 0 44.112 35.888 80 80 80 14.566 0 28.223-3.933 40-10.763 11.777 6.83 25.434 10.763 40 10.763 44.112 0 80-35.888 80-80 0-36.94-25.166-68.112-59.254-77.273z" fill="#e7e9ef"/></g><g id="XMLID_1511_"><path id="XMLID_620_" d="m156.527 170.041c-21.366 28.187-34.048 63.318-34.048 101.415 0 44.498 17.301 84.95 45.535 115.015 28.233-30.065 45.535-70.517 45.535-115.015 0-28.084-6.891-54.556-19.073-77.822z" fill="#a7bdcd"/></g><g id="XMLID_1508_"><path id="XMLID_614_" d="m355.443 170.04c21.366 28.187 34.048 63.318 34.048 101.415 0 44.498-17.301 84.95-45.535 115.015-28.233-30.065-45.534-70.517-45.534-115.015 0-28.084 6.891-54.556 19.073-77.822z" fill="#a7bdcd"/></g><g id="XMLID_1487_"><path id="XMLID_9_" d="m268.521 87.508 64.594-64.594c14.981-14.981 38.493-17.209 56.021-5.307l-65.319 65.319z" fill="#ffcd69"/></g><g id="XMLID_1506_"><path d="m243.45 87.508-64.594-64.594c-14.981-14.981-38.493-17.209-56.021-5.307l65.319 65.319z" fill="#ffcd69"/></g><g id="XMLID_2246_"><path id="XMLID_612_" d="m278.319 153.304-15.208 30.249c-2.945 5.857-11.306 5.857-14.251 0l-15.208-30.249 20.666-16.333z" fill="#ff5d7d"/></g><g id="XMLID_1399_"><g id="XMLID_1333_"><circle id="XMLID_535_" cx="215.985" cy="116.573" fill="#8aa8bd" r="40"/></g><g id="XMLID_1402_"><circle id="XMLID_459_" cx="295.985" cy="116.573" fill="#8aa8bd" r="40"/></g></g><g id="XMLID_1516_"><g id="XMLID_1514_"><path d="m235.985 440.304c-11.046 0-20-8.954-20-20v-24c0-11.046 8.954-20 20-20 11.046 0 20 8.954 20 20v24c0 11.046-8.954 20-20 20z" fill="#ffcd69"/></g><g id="XMLID_1519_"><path d="m275.985 440.304c-11.046 0-20-8.954-20-20v-24c0-11.046 8.954-20 20-20 11.046 0 20 8.954 20 20v24c0 11.046-8.954 20-20 20z" fill="#ffcd69"/></g></g></g><g id="XMLID_624_"><path id="XMLID_627_" d="m401.985 378.47h-38.277c13.46-17.893 23.528-38.24 29.44-59.762 1.463-5.326-1.668-10.829-6.993-12.292-5.328-1.466-10.829 1.668-12.292 6.993-5.787 21.065-16.048 40.879-29.91 57.889-22.987-28.153-35.53-63.201-35.53-99.843 0-24.094 5.555-48.035 16.083-69.517 10.903-3.652 20.878-9.34 29.48-16.607 8.889 13.63 15.56 28.445 19.881 44.179 1.219 4.439 5.245 7.354 9.637 7.354.877 0 1.768-.116 2.654-.36 5.325-1.462 8.457-6.965 6.994-12.291-5.297-19.288-13.729-37.347-25.095-53.792 11.255-15.026 17.929-33.672 17.929-53.848 0-22.12-7.889-42.898-22.357-59.316l32.578-32.579c2.107-2.108 3.165-5.047 2.884-8.015s-1.871-5.655-4.338-7.33c-21.465-14.573-50.36-11.838-68.709 6.509l-10.502 10.502c-17.662-11.713-38.08-17.874-59.557-17.874s-41.896 6.16-59.555 17.874l-10.502-10.502c-18.347-18.346-47.245-21.082-68.709-6.508-2.467 1.675-4.057 4.362-4.338 7.33s.776 5.906 2.884 8.015l32.585 32.585c-14.307 16.337-22.364 37.479-22.364 59.31 0 20.176 6.674 38.822 17.929 53.848-20.589 29.77-31.435 64.53-31.435 101.035 0 38.942 12.587 76.281 35.754 107.015h-38.248c-5.522 0-10 4.478-10 10v40c0 5.522 4.478 10 10 10h83.127v24.412c0 21.447 12.874 40.436 32.798 48.377 1.188.474 2.445.711 3.702.711s2.514-.237 3.702-.711c9.354-3.728 17.154-9.893 22.798-17.603 5.644 7.71 13.443 13.875 22.798 17.603 1.189.474 2.445.711 3.702.711s2.514-.237 3.702-.711c19.924-7.94 32.798-26.93 32.798-48.377v-24.414h82.873c5.522 0 10-4.478 10-10v-40c-.001-5.522-4.478-10-10.001-10zm-36-261.897c0 38.599-31.402 70-70 70-7.317 0-14.569-1.167-21.487-3.407l9.122-18.143c3.956 1.01 8.098 1.55 12.365 1.55 27.57 0 50-22.43 50-50 0-11.667-4.028-22.405-10.751-30.921l14.214-14.214c10.71 12.612 16.537 28.38 16.537 45.135zm-150-30c16.542 0 30 13.458 30 30s-13.458 30-30 30-30-13.458-30-30 13.458-30 30-30zm110 30c0 16.542-13.458 30-30 30s-30-13.458-30-30 13.458-30 30-30 30 13.458 30 30zm-70 29.965c2.756 3.669 6.008 6.941 9.65 9.732l-9.65 19.193-9.649-19.194c3.641-2.79 6.894-6.062 9.649-9.731zm115.805-125.728-51.874 51.874c-5.133-2.811-10.812-4.739-16.831-5.599l37.101-37.101c8.456-8.456 20.464-11.652 31.604-9.174zm-115.805 7.66c16.114 0 31.498 4.246 45.064 12.366l-45.064 45.064-45.064-45.063c13.567-8.12 28.95-12.367 45.064-12.367zm-84.2 1.515 37.101 37.101c-6.019.86-11.698 2.788-16.831 5.599l-51.874-51.875c11.138-2.48 23.147.719 31.604 9.175zm-9.24 41.474 14.192 14.192c-6.724 8.516-10.751 19.254-10.751 30.921 0 27.57 22.43 50 50 50 4.267 0 8.409-.54 12.365-1.55l9.121 18.143c-6.918 2.241-14.17 3.407-21.487 3.407-38.598 0-70-31.401-70-70 0-16.53 5.965-32.546 16.56-45.113zm-4.556 113.876c8.601 7.266 18.575 12.952 29.476 16.604 10.528 21.482 16.083 45.423 16.083 69.517 0 36.644-12.544 71.693-35.534 99.848-22.99-28.154-35.534-63.204-35.534-99.848-.001-30.962 8.79-60.506 25.509-86.121zm65.559 86.121c0-22.257-4.224-44.4-12.284-65.006 1.564.082 3.138.124 4.721.124 13.886 0 27.602-3.24 40-9.412 12.398 6.172 26.114 9.412 40 9.412 1.584 0 3.158-.042 4.721-.124-8.06 20.607-12.284 42.75-12.284 65.006 0 38.942 12.587 76.281 35.754 107.015h-24.085c-5.471-7.375-14.239-12.166-24.107-12.166-7.678 0-14.688 2.902-20 7.663-5.312-4.761-12.322-7.663-20-7.663-9.868 0-18.636 4.791-24.107 12.166h-24.085c23.169-30.734 35.756-68.073 35.756-107.015zm2.437 124.847c0-5.514 4.486-9.999 10-9.999s10 4.485 10 9.999v24.001c0 5.514-4.486 10-10 10s-10-4.486-10-10zm40 24.001v-24.001c0-5.514 4.486-9.999 10-9.999s10 4.485 10 9.999v24.001c0 5.514-4.486 10-10 10s-10-4.486-10-10zm-146-21.834h86v20h-86zm109.627 92.46c-10.141-5.603-16.5-16.218-16.5-28.048v-23.197c5.507 6.49 13.715 10.619 22.873 10.619 3.553 0 6.961-.624 10.127-1.763v14.341c0 11.831-6.359 22.446-16.5 28.048zm53 0c-10.141-5.603-16.5-16.218-16.5-28.048v-14.255c3.094 1.082 6.415 1.677 9.873 1.677 9.297 0 17.62-4.251 23.127-10.912v23.49c0 11.831-6.359 22.446-16.5 28.048zm109.373-72.46h-86v-20h86z"/><path id="XMLID_643_" d="m215.985 126.576c2.63 0 5.21-1.07 7.069-2.93 1.86-1.86 2.931-4.44 2.931-7.07 0-2.64-1.07-5.21-2.931-7.07-1.859-1.869-4.439-2.93-7.069-2.93s-5.21 1.061-7.07 2.93c-1.86 1.86-2.93 4.431-2.93 7.07 0 2.63 1.069 5.21 2.93 7.07 1.86 1.86 4.44 2.93 7.07 2.93z"/><path id="XMLID_644_" d="m288.915 109.506c-1.86 1.86-2.93 4.431-2.93 7.07 0 2.63 1.069 5.21 2.93 7.07 1.86 1.859 4.44 2.93 7.07 2.93s5.21-1.07 7.069-2.93c1.86-1.86 2.931-4.44 2.931-7.07 0-2.64-1.07-5.21-2.931-7.07-1.859-1.869-4.439-2.93-7.069-2.93s-5.21 1.061-7.07 2.93z"/><path id="XMLID_645_" d="m389.495 261.456c-2.64 0-5.21 1.07-7.08 2.931-1.86 1.859-2.92 4.439-2.92 7.069s1.06 5.21 2.92 7.07c1.87 1.86 4.45 2.93 7.08 2.93s5.2-1.069 7.07-2.93c1.859-1.86 2.92-4.44 2.92-7.07s-1.061-5.21-2.92-7.069c-1.86-1.861-4.44-2.931-7.07-2.931z"/></g></g></svg>